<svg xmlns="http://www.w3.org/2000/svg" xmlns:xlink="http://www.w3.org/1999/xlink" id="Layer_1" width="50" height="50" x="0" y="0" enable-background="new 0 0 50 50" version="1.1" viewBox="0 0 50 50" xml:space="preserve"><g><path d="M24.936,33.849c-3.937,0-7.139-3.202-7.139-7.139V11c0-3.937,3.203-7.139,7.139-7.139S32.074,7.063,32.074,11v15.71 C32.074,30.646,28.872,33.849,24.936,33.849z M24.936,5.139c-3.232,0-5.861,2.63-5.861,5.861v15.71 c0,3.231,2.629,5.861,5.861,5.861c3.232,0,5.861-2.63,5.861-5.861V11C30.797,7.769,28.168,5.139,24.936,5.139z"/><path d="M24.936,37.676c-5.866,0-10.639-4.827-10.639-10.761v-2.457c0-0.353,0.286-0.639,0.639-0.639s0.639,0.286,0.639,0.639 v2.457c0,5.229,4.199,9.483,9.361,9.483c5.162,0,9.361-4.255,9.361-9.483v-2.457c0-0.353,0.285-0.639,0.639-0.639 s0.639,0.286,0.639,0.639v2.457C35.574,32.849,30.802,37.676,24.936,37.676z"/><rect width="12.75" height="1.277" x="18.561" y="18.319"/><path d="M33.311,45.597h-16.75c-0.353,0-0.639-0.286-0.639-0.639s0.286-0.639,0.639-0.639h16.75c0.354,0,0.639,0.286,0.639,0.639 S33.664,45.597,33.311,45.597z"/><rect width="1.278" height="7.921" x="24.296" y="37.037"/></g></svg>